<svg width="24" height="24" viewBox="0 0 24 24" fill="none" xmlns="http://www.w3.org/2000/svg">
<path d="M20 20.5H4C2.9 20.5 2 19.6 2 18.5V8.05C2 7.4 2.3 6.8 2.85 6.4L12 0L21.15 6.4C21.7 6.75 22 7.4 22 8.05V18.5C22 19.6 21.1 20.5 20 20.5Z" fill="#78909C"/>
<path d="M7 0.5H17V16H7V0.5Z" fill="#AED581"/>
<path d="M6.5 0V16.5H17.5V0H6.5ZM16.5 15.5H7.5V1H16.5V15.5Z" fill="#558B2F"/>
<path d="M17 1.5C17 2.35 16.85 3 16 3C15.15 3 14.5 2.35 14.5 1.5C14.5 0.65 15.15 0.5 16 0.5C16.85 0.5 17 0.65 17 1.5ZM8 0.5C8.85 0.5 9.5 0.65 9.5 1.5C9.5 2.35 8.85 3 8 3C7.15 3 7 2.35 7 1.5C7 0.65 7.15 0.5 8 0.5Z" fill="#558B2F"/>
<path d="M12 5C12.5523 5 13 4.55228 13 4C13 3.44772 12.5523 3 12 3C11.4477 3 11 3.44772 11 4C11 4.55228 11.4477 5 12 5Z" fill="#558B2F"/>
<path d="M12 13C13.6569 13 15 11.6569 15 10C15 8.34315 13.6569 7 12 7C10.3431 7 9 8.34315 9 10C9 11.6569 10.3431 13 12 13Z" fill="#558B2F"/>
<path d="M20 20.5H4C2.9 20.5 2 19.6 2 18.5V8.5L12 15L22 8.5V18.5C22 19.6 21.1 20.5 20 20.5Z" fill="#CFD8DC"/>
</svg>
