<svg width="16" height="16" viewBox="0 0 16 16" fill="none" xmlns="http://www.w3.org/2000/svg">
<path d="M15.762 3.29134C15.2053 3.53801 14.6073 3.70468 13.9786 3.78001C14.6273 3.39187 15.1126 2.78099 15.344 2.06134C14.7345 2.42334 14.0675 2.67814 13.372 2.81468C12.9042 2.31525 12.2847 1.98423 11.6095 1.87299C10.9344 1.76176 10.2414 1.87654 9.63813 2.19951C9.03489 2.52249 8.55515 3.03559 8.2734 3.65915C7.99166 4.28271 7.92366 4.98184 8.07997 5.64801C6.84509 5.58601 5.63705 5.26504 4.53425 4.70595C3.43145 4.14685 2.45853 3.36212 1.67863 2.40268C1.41197 2.86268 1.25863 3.39601 1.25863 3.96401C1.25834 4.47534 1.38426 4.97884 1.62522 5.42983C1.86618 5.88083 2.21474 6.26537 2.63997 6.54934C2.14682 6.53365 1.66455 6.4004 1.2333 6.16068V6.20068C1.23325 6.91784 1.48132 7.61293 1.93542 8.16801C2.38952 8.72309 3.02168 9.10396 3.72463 9.24601C3.26716 9.36982 2.78753 9.38806 2.32197 9.29934C2.5203 9.91642 2.90663 10.456 3.42688 10.8426C3.94713 11.2292 4.57525 11.4435 5.2233 11.4553C4.12319 12.319 2.76456 12.7874 1.36597 12.7853C1.11822 12.7854 0.870685 12.7709 0.624634 12.742C2.04428 13.6548 3.69686 14.1392 5.38463 14.1373C11.098 14.1373 14.2213 9.40534 14.2213 5.30134C14.2213 5.16801 14.218 5.03334 14.212 4.90001C14.8195 4.46066 15.3439 3.91661 15.7606 3.29334L15.762 3.29134Z" fill="white"/>
</svg>
